<?xml version="1.0" encoding="utf-8"?>
<!-- Generator: Adobe Illustrator 19.2.0, SVG Export Plug-In . SVG Version: 6.00 Build 0)  -->
<svg version="1.1" id="Layer_1" xmlns="http://www.w3.org/2000/svg" xmlns:xlink="http://www.w3.org/1999/xlink" x="0px" y="0px"
	 viewBox="0 0 184.9 169.5" style="enable-background:new 0 0 184.9 169.5;" xml:space="preserve">
<style type="text/css">
	.st0{fill:#FFFFFF;stroke:#000000;stroke-width:4.06;stroke-linecap:round;stroke-linejoin:round;}
	.st1{fill:none;stroke:#000000;stroke-width:4.06;stroke-linecap:round;stroke-linejoin:round;}
</style>
<title>paper</title>
<g id="g5439">
	<g id="g3915-6-1-6-3-8-9-4">
		<path id="path3894-6-1-0-5-5-2-9" class="st0" d="M18.5,112.1c-8,3.8-12.3-1.9-15.1-9.2c-4-10.4,1-34.4,6.9-42.2
			c5.4-7.2,12.6-9.8,18.1-5.6"/>
		<path id="path3112-2-8-6-8-2-9-8" class="st0" d="M79.8,3.3c-9.3-6-17.2,10.4-22.5,28.6c-2.1,7.1-27.9,18.8-35.5,35
			c-4.9,10.6-8.4,35.4-2.9,44.9c9.5,16.2,23,25.3,40.2,30.6c6.2,1.8,12.6,2.9,19.1,3.2c19.3,0.9,64,22.7,69.1,21.9
			c14-2.2,7.7-18.8-0.8-23c-4.1-2-32.3-20.5-26.6-20c14,1.3,30.8,4.4,46.4,8.3c23.4,5.9,20.9-28-1.1-33.2
			c-10.3-2.4-18.6-5.7-41.7-10.7c13-2.6,31.7-7.1,44.5-8c21-1.4,11.7-32.3-13.9-30c-17.5,1.5-48.6,7.7-78.1,3.2
			C86.9,43.6,107.8,21.3,79.8,3.3L79.8,3.3L79.8,3.3z"/>
		<path id="path3882-6-1-33-9-9-7-9" d="M124.5,86.2c-15.9,2.1-23.6,6.8-27.4,8.4c9.9-1.6,12.4-2.2,23.1-3.1c2.2-0.2,4.4,0,6.5,0.5
			L124.5,86.2z"/>
		<path id="path3884-6-1-2-9-6-6-0" d="M120.2,121.9c-9.3-0.8-20.8,0.4-28.2,3.2c5.1,0.4,13.9,0.9,21.7,1.4c2.3,0.1,4.6,1.1,6.2,2.7
			C119.5,126.7,119.9,124.3,120.2,121.9L120.2,121.9z"/>
		<path id="path3886-8-5-4-3-7-0-8" class="st1" d="M29.1,101c11.3,6.2,14.8,6.5,20.6,8.6"/>
		<path id="path3888-4-4-9-8-4-7-4" class="st1" d="M29.5,89.5c13.8,3.5,20.8,3.9,30.3,5.5"/>
		<path id="path3890-1-8-5-1-8-9-7" class="st1" d="M30.3,75.7c9.8,1.1,14.5,0.8,20.7,0.9"/>
	</g>
</g>
</svg>
