<?xml version="1.0" encoding="utf-8"?>
<!-- Generator: Adobe Illustrator 19.2.0, SVG Export Plug-In . SVG Version: 6.00 Build 0)  -->
<svg version="1.1" id="Layer_1" xmlns="http://www.w3.org/2000/svg" xmlns:xlink="http://www.w3.org/1999/xlink" x="0px" y="0px"
	 viewBox="0 0 136.3 116.2" style="enable-background:new 0 0 136.3 116.2;" xml:space="preserve">
<style type="text/css">
	.st0{fill:#FFFFFF;stroke:#000000;stroke-width:4.06;stroke-linecap:round;stroke-linejoin:round;}
	.st1{fill:none;stroke:#000000;stroke-width:4.06;stroke-linecap:round;stroke-linejoin:round;}
</style>
<title>rock</title>
<g id="g32290">
	<path id="path32292" class="st0" d="M30.6,20.5C25.3,15.9,18,18.2,12.2,25C5.9,32.5-0.4,56.3,3,66.8c2.4,7.5,6.3,13.3,14.5,10"/>
	<path id="path32294" class="st0" d="M108.8,27.7c22.2-5.9,34.7,19.1,14.9,31.7c14.9,2.5,14.8,33.4-5.6,35.3
		c0.2,16.7-18.8,21.4-42.8,18.8c-6.4-0.6-12.8-2.1-18.9-4.2c-17-6.2-30-16-38.5-32.7c-5-9.8,0-34.2,5.3-44.6
		C33.6,11.8,66.4-1.3,85.3,2.8C105,7,106.6,23.8,108.8,27.7z"/>
	<path id="path32296" d="M122.6,61.8L122.6,61.8c1,0.1,1.9,0.3,2.8,0.7l0.1-7.6c-1.7,1.2-3.7,2.1-5.8,2.5
		c-10.5,2.1-13.1,2.1-23.1,3.3C100.8,61.2,106.8,64.2,122.6,61.8L122.6,61.8z"/>
	<path id="path32298" d="M119.7,97L119.7,97c-1.9-4.7-1.9-4.7-1.9-4.7c-7.8,0-21.1,1.3-26.3,1.4C98.7,96.8,110.3,97.4,119.7,97
		L119.7,97z"/>
	<path id="path32300" class="st1" d="M48.8,76.1c-5.7-2.4-9.1-2.9-20.1-9.7"/>
	<path id="path32302" class="st1" d="M59.5,61.9c-9.2-2-16.2-2.8-29.9-7.1"/>
	<path id="path32304" class="st1" d="M51.8,43.1c-6.2-0.4-10.9-0.3-20.6-2"/>
	<path id="path32306" d="M110.4,25.1L110.4,25.1l-1.4,5.1c-24.4,0.2-26.8-8.9-36.4-16.9C82.3,19.1,89.3,26.6,110.4,25.1L110.4,25.1z
		"/>
</g>
</svg>
